<?xml version="1.0" standalone="no"?>
<!DOCTYPE svg PUBLIC "-//W3C//DTD SVG 20010904//EN"
 "http://www.w3.org/TR/2001/REC-SVG-20010904/DTD/svg10.dtd">
<svg version="1.0" xmlns="http://www.w3.org/2000/svg"
 width="1280.000000pt" height="1280.000000pt" viewBox="0 0 1280.000000 1280.000000"
 preserveAspectRatio="xMidYMid meet">
<g transform="translate(0.000000,1280.000000) scale(0.100000,-0.100000)"
fill="#ff5722" stroke="none">
<path d="M6450 12520 c-8 -5 -37 -10 -63 -10 -26 0 -61 -6 -76 -14 -15 -8 -43
-15 -62 -15 -101 1 -227 -9 -246 -19 -12 -7 -37 -12 -56 -12 -23 0 -41 -8 -57
-25 -49 -52 -88 -55 -930 -56 -360 0 -700 -4 -755 -9 -122 -10 -319 -29 -360
-35 -16 -3 -147 -9 -290 -15 -143 -6 -278 -12 -300 -14 -22 -3 -134 -10 -250
-16 -199 -10 -481 -36 -516 -46 -9 -2 -133 -9 -275 -13 -193 -7 -270 -13 -303
-25 -24 -9 -54 -16 -67 -16 -36 0 -87 -58 -107 -124 -20 -62 -27 -75 -145
-284 -41 -74 -88 -166 -104 -205 -15 -40 -35 -85 -43 -102 -8 -16 -37 -109
-65 -205 -41 -143 -50 -189 -50 -252 0 -88 -13 -150 -47 -225 -13 -28 -23 -56
-23 -62 0 -5 -17 -54 -39 -109 -66 -170 -81 -338 -39 -422 32 -62 68 -85 134
-86 30 0 57 -4 60 -7 4 -4 -3 -37 -14 -74 -12 -38 -28 -102 -37 -144 -20 -97
-82 -303 -133 -439 -71 -189 -205 -635 -266 -885 -8 -33 -23 -94 -34 -135 -26
-100 -33 -159 -37 -321 -4 -153 -20 -254 -45 -284 -9 -11 -22 -40 -29 -65 -8
-25 -17 -57 -22 -72 -4 -15 -11 -90 -14 -165 -15 -358 -26 -465 -71 -713 -24
-133 -47 -341 -42 -390 1 -14 2 -162 2 -330 0 -266 -11 -484 -28 -585 -8 -43
-25 -203 -36 -324 -5 -58 -11 -238 -15 -400 -3 -163 -10 -344 -16 -402 -16
-164 -16 -585 0 -639 14 -49 16 -343 3 -567 -4 -67 -3 -141 2 -165 13 -66 11
-764 -3 -818 -6 -25 -14 -144 -17 -265 l-6 -220 27 -39 c27 -39 27 -41 21
-165 -16 -339 -17 -474 -7 -679 10 -214 12 -225 37 -271 28 -50 50 -61 149
-77 22 -3 50 -12 61 -20 12 -7 30 -13 40 -13 11 0 39 -5 64 -10 25 -6 95 -20
155 -31 61 -10 126 -24 145 -29 19 -6 71 -15 115 -20 44 -6 130 -17 190 -25
61 -9 151 -20 200 -26 50 -6 124 -16 165 -21 82 -11 161 -20 380 -43 223 -23
724 -48 825 -41 50 3 281 13 515 21 234 9 508 20 610 24 102 5 343 12 535 15
410 8 673 30 829 70 83 22 296 57 379 62 63 4 68 7 83 35 9 17 20 58 25 92 15
96 44 420 59 671 18 276 45 671 59 850 15 184 20 292 31 610 5 154 14 325 19
380 6 55 16 145 22 200 5 55 14 154 19 220 17 238 34 300 95 344 42 30 46 31
69 16 13 -9 37 -34 52 -57 25 -35 29 -52 30 -112 1 -39 7 -111 13 -161 24
-180 30 -295 31 -575 0 -157 5 -463 10 -680 25 -1076 31 -1274 35 -1303 2 -18
7 -68 10 -112 3 -44 10 -102 15 -130 5 -27 14 -88 21 -135 15 -94 25 -109 108
-158 100 -59 165 -74 441 -102 52 -6 131 -14 175 -20 44 -5 136 -16 204 -24
87 -11 228 -15 470 -15 241 0 390 -5 491 -16 164 -17 497 -20 610 -4 41 5 298
11 571 14 273 2 532 8 575 14 43 5 124 15 179 21 55 6 132 15 170 20 39 5 122
14 185 20 63 7 160 20 215 30 124 23 230 39 304 45 31 3 76 9 101 14 25 6 72
12 105 16 129 12 172 17 215 26 25 5 97 18 160 29 151 27 142 23 199 85 81 89
80 83 85 615 3 359 1 472 -9 500 -7 21 -9 43 -5 51 14 25 31 177 25 221 -17
113 -17 272 0 429 13 125 18 284 20 674 2 282 8 539 14 575 17 105 18 1084 2
1195 -6 39 -11 95 -11 125 0 30 -4 71 -10 90 -5 19 -11 73 -14 120 -3 47 -11
123 -17 170 -6 47 -13 200 -15 340 -3 140 -6 271 -8 290 -2 19 -9 154 -15 300
-7 146 -19 353 -28 460 -8 107 -19 258 -24 335 -5 77 -13 176 -18 220 -6 44
-13 127 -17 185 -4 73 -12 114 -24 135 -10 17 -21 45 -25 62 -4 20 -25 50 -55
79 l-48 46 -7 171 c-4 95 -9 181 -10 192 -1 11 -5 61 -9 110 -8 91 -27 223
-48 325 -6 30 -31 116 -56 190 -25 74 -49 153 -53 175 -14 73 -46 212 -69 305
-5 19 -13 61 -19 93 -30 157 -39 194 -96 387 -29 96 -57 174 -71 197 -25 40
-18 61 25 74 101 30 163 130 175 279 7 94 -22 309 -59 440 -30 105 -49 166
-56 180 -4 8 -15 38 -25 65 -9 28 -36 91 -59 140 -64 137 -104 244 -140 368
-13 46 -50 128 -125 277 -34 68 -65 157 -88 250 -6 27 -14 36 -33 38 -13 2
-50 12 -81 22 -42 15 -84 19 -170 19 -110 0 -190 10 -239 29 -45 19 -143 45
-234 64 -194 40 -667 121 -870 148 -44 6 -105 15 -135 20 -30 5 -86 12 -125
14 -38 3 -101 8 -140 11 -147 12 -379 26 -600 35 -616 27 -709 31 -825 41 -76
6 -267 8 -487 4 l-361 -6 -39 27 c-33 22 -45 25 -90 21 -42 -4 -54 -2 -69 14
-9 10 -30 19 -45 19 -16 0 -40 11 -55 25 -28 26 -68 32 -94 15z m-4756 -877
c-3 -21 -13 -56 -21 -78 -8 -22 -17 -54 -20 -71 -4 -29 -2 -32 35 -47 22 -9
42 -20 45 -24 2 -4 -2 -51 -9 -103 -7 -52 -16 -117 -19 -145 -11 -91 -36 -196
-65 -279 -66 -189 -80 -219 -127 -288 -96 -139 -143 -250 -143 -340 0 -38 -4
-50 -21 -58 -26 -15 -66 -5 -77 18 -15 27 4 199 31 287 13 44 41 141 62 215
20 74 58 203 82 285 25 83 56 188 70 235 47 165 86 276 125 353 42 84 63 100
52 40z m9555 -138 c12 -31 21 -59 21 -64 0 -4 6 -21 14 -37 8 -16 31 -85 51
-154 20 -69 65 -191 100 -272 78 -180 105 -264 142 -438 46 -225 36 -387 -30
-448 -15 -14 -30 -19 -49 -15 -28 5 -28 6 -27 87 1 90 -10 126 -65 226 -19 36
-42 81 -51 100 -8 19 -19 42 -25 50 -42 64 -120 251 -120 290 0 10 -4 21 -9
24 -4 3 -11 31 -15 63 -4 31 -14 81 -22 110 -14 47 -14 57 1 105 29 94 45 211
45 321 0 59 4 107 9 107 5 0 19 -25 30 -55z"/>
</g>
</svg>
